<mxfile host="app.diagrams.net" agent="Mozilla/5.0 (Windows NT 10.0; Win64; x64; rv:137.0) Gecko/20100101 Firefox/137.0" version="26.2.14">
  <diagram name="Page-1" id="O4HzCRV_rN83abpLpgyO">
    <mxGraphModel dx="1042" dy="544" grid="1" gridSize="10" guides="1" tooltips="1" connect="1" arrows="1" fold="1" page="1" pageScale="1" pageWidth="850" pageHeight="1100" math="0" shadow="0">
      <root>
        <mxCell id="0" />
        <mxCell id="1" parent="0" />
        <mxCell id="WDYBSq2lpUrKtIkz1H38-3" value="" style="edgeStyle=orthogonalEdgeStyle;rounded=0;orthogonalLoop=1;jettySize=auto;html=1;" edge="1" parent="1" source="WDYBSq2lpUrKtIkz1H38-1">
          <mxGeometry relative="1" as="geometry">
            <mxPoint x="225" y="195" as="targetPoint" />
          </mxGeometry>
        </mxCell>
        <mxCell id="WDYBSq2lpUrKtIkz1H38-1" value="" style="shape=image;verticalLabelPosition=bottom;labelBackgroundColor=default;verticalAlign=top;aspect=fixed;imageAspect=0;image=data:image/jpeg,/9j/4AAQSkZJRgABAQAAAQABAAD/2wCEAAkGBxMTEhMSEBIWFhUTFRgVFxgVGBUVHRUWFxUXFxYbGxcYHSgjGiYlGxUVITEiJSkrMC4uFx8zODMsNygtLisBCgoKDg0OGxAQGy8mICYvLS0yLy8tLS0tLS0tLS0tLS0yLS0tLS01Mi8tLS0vMC8tLS0tLy0tLS0tLS0tLS0tLf/AABEIAOEA4QMBEQACEQEDEQH/xAAbAAEAAwEBAQEAAAAAAAAAAAAABAUGAwEHAv/EADoQAAEDAQUFBwMCBgEFAAAAAAEAAgMRBAUhMVEGEkFhsRMiMkJxweFSgfAjoRRikbLC8QcVU3KC0f/EABoBAQEBAAMBAAAAAAAAAAAAAAAFBAIDBgH/xAAyEQACAQMCAwcDBAMAAwAAAAAAAQIDBBEhMRJBUQUTImGx4fAycbIUgaHBI2KRFaLR/9oADAMBAAIRAxEAPwD7igCAIAgCAIAgCAIAgCAIAgCAIAgCAIAgCAIAgCAIAgCAIAgCAIAgCAIAgCAIAgCAIAgCAIAgCAIAgCA/O+K0qKofMn6Q+hAEAQBAEAQBAEAQBAEAQBAEAQBAEAQBAEAQBAEAQBAeEoDGbRbSFxMdncQ0eJ4wLuTTwHPj1x1a2dIkW8vnJ8FN6dTM1xrx1WYl88mi2e2jcwiOdxcw5OOJZ6niOi00qzWkilaXzg+Go9OvT2Nu1wIqMithbTyeofQgCAIAgCAIAgCAIAgCAIAgCAIAgCAIAgCAIAgPCUBitptoO0rFCe5k5w8/IcuvpnjrVs+GJEvb3j8ENub6+xmHvABJNAOJWeMXJ4RNjFyeESLog/iHUjIIHid9K742tRy4WsGmnZ1ZT4WsC12cxvcwkHdOYXVUhwScWdNWk6c3B8i72av/ALKkUp/TOR+j46Lto1uHR7G2zve78E9vT2Ny1wIqOK2lxPJ6h9CAIAgCAIAgCAIAgCAIAgCAIAgCAIAgCAIDwlAYrabaDtKxQnuZOcPPyHLr6Z461bOkSJe3vH4Ibc31+fyZiR4aCSaAZrojFyeETYxcnhLUzt428yGgwaMhrzKt21sqSzzL9raqisv6j83ZeUkD9+JxaSKHQjQ/mC0SjxLBqksppPBtbkjhlhfNI/kQDix3PUnhr0lfpI04t1GSVYwpxlKs/wDnzfyICwEs0OzV/mIiKU/pnI/R8dF30a3Do9ijZXvd+Ce3p7G5a6uIyK2l1HqAIAgCAIAgCAIAgCAIAgCAIAgCAIAgCA8JQGK2m2g7SsUJ7mTnDz8hy6+meOtWz4YkS9vePMIbc319jNLMTDFWy/8AtZnMPdjB3WjUg0q71/ZWrWjGms82egtLVUo8XN/MHRbTWEB2stpdG7eb9xwI5rrq0o1I8MjqrUY1Y8Mjdm9bPJZ2shbicXb2bHcaniT/AEopl0o0oKml+5NvO7pU1RivPJEns7mU32kVFRXRYpQlHdE6dOcPqWMl5s1f/ZERSmsZyP0fHRdtGtw6PY3WV73fgnt6exuWuqKjIraXE8nqH0IAgCAIAgCAIAgCAIAgCAIAgCAIDwlAYrabaDtKxQnuZOcPPyHLr6Z461bOkSJe3vH4Ke3N9fYzSzEw62aIOe1pcGgmlTwXKEeKSTeDnThxyUW8ZM//AMhbKxMd2lkqXAVlYMcfqHM8Wj1GOdZVqcGqeS+rilTkqOfIyd2Xhkx59D7FbIy5M1NFsuZ8CAlXZbnQyNkYAS01ocQ4aH8wXGcIy3RxlCMsZWcG2gtrre4bmDRmPo1J1JUqvTq1KvC9v4JVxTrV6/A9v4x1+5GtlnMbywkEjT8wWKpBwk4sn1abpTcHyLvZq/8AsqRSmsZyP0fHRdtGtw6PY22d73fgnt6exuWuqKjitpcTPUPoQBAEAQBAEAQBAEAQBAEAQBAeEoDFbTbQdpWKE9zJzh5+Q5dfTPHWrZ8MSJe3vH/jg9Ob6/P5My5wAqTQDicFnSbeETVFyeEiTdtkdOf06EcXcB9wu2FCc5cODvpWtSpPhSx9zlNEWuLXChBoV1yi4vDOiUXGXC9yZc00TH70oOAq05gEctdF3W8oRlmZptJ0oTzU/Yx+12zbp3y2myQ6vkjaOHFwGpzLRniRz3ULh1JNYKlreOtNprT5uZm7LwyY8+h9it0Zcmbmi2XM+BATLsvKSB+/E6hpQ6EaELjKPEsHxptNJm0uOKGaF88kmAqCK4tdqdSeGqlfpFBSdV/OpJVjGEZTrP519iCVPJZoNmr/AOyIilP6ZyP0fHRaKNbh0exRsrzu/BP6fT2Ny11RUcVtLqPUAQBAEAQBAEAQBAEAQBAEB4SgMVtNtB2lYoT3MnOHn5Dl19M8datnwxIl7e8fghtzfX2MxI8NBJNAM10Ri5PC3JsYuTUVuZ28beZDQYNGQ15lW7a2VJZ5l+1tVRWX9R3uS/JbNvBh7r/END9TdD+aU7qsHKLUXhmiopOLUXhmvsdgY+zmd0go4VaRjjz5k4U4KQ7Xhg5VHhkj9Dw03Oq8P56lasZOLCyXs6OMxtABJwdxFc/U6FaKdxKEHFf9NdK8lTpOEV+5k9rdiHiJ1riABrV8XEg+ZvPVv3zwVCg5Rp5qMrWspxpZrP7Z/syl2Xhkx59D7FbIy5M1tFsuZ8CAsbjY7tKtrujxaHDALDfSiqeHvyMHaE4KlwvfkaBRiGS7FZN7F3h6rHdXXd+GO/oW+yuyncvvKn0fl7Grua89yjH+DIfy/C49n9oOm+7qPTr09vQ9PcWiazBYxyNKvRksIAgCAIAgCAIAgCAIAgPCUBitptoO0rFCe5k5w8/IcuvpnjrVs6RIl7e8fght16+xmiaYngsxMSyY2W/u3eWjusHgB82pPPl8q3a0FSWu56G1tFRWX9R6thqCAm3db3RmhJLCalv7Ega0/qs9xQVWOHuZ7m3VaOGbe3z2cxRiCjsK740OYdz5cFNuY04JQS1Jt7GjTiqUFquZXSRlpo4EHQ4ZrG008Mnyi4vDRIbM+UxxvkoBgC7Ieuui7FKVRqMnodqnOq4wlLTzM1/yDsnEx3aWSpcBWWMY/wDsOerR6+tRVacGqeS4q9KlJUW/3/8Apk7svDJjz6H2K1xlyZqaNBYLGZHUGAGZ0+V13FxGlHz6GW5uI0Y678kaSGIMAa0UAUKc5TlxSIFSpKpLiluTLNZC4V4dVgubpU/DHf0LPZHZX6mSqVfo/L28ydZ5qYHLoo711PdOkkvCiUvh1Gyu9xMUZOe6Oi9natujBvfC9CBVSU3jqSF3nWEAQBAEAQBAEAQBAeEoDFbTbQdpWKE9zJzh5+Q5dfTPHWrZ0iRL294/BDbm+vsZpZiYd7DZe1eGAgV4nTjhx9F2UqfHJRO2hSdWaingxW3WyzbLIX2ZxdFhvDMwu0rxHTJWFVjxcGdT0Ma9Pj7rOpW3db9/uu8X93ytEZHc0T1zPgQFncF6/wAPK17m77K95v8AkOY/NR1TpQm02tUdcqUJSUpLVGv7Z1teHRgbtMD9I/mOvJSasalarw4xgkVo1bmu44xj+F5kGaItcWuFCDQrLKLi8Mwzg4ScZbomXPJE2TemrhiOIrzHRdtvKmpZmaLSVKNTNX9vuZfaHZuK0TumjPYh5q5oaDU8XDHuk8cx76P1z10Nf/lHl+H7FnY7KyJgZGKNH5UniVjnNzeWTalSVSXFLcn2Kzhx72XVYLq57tcMd/Qs9ldkSuf8tReD8vbzLgBR28vLPaRiorC2OE8NcRn1Q7YTxuTLisTpXUPgbmfYfmC22dnK4l/qt3/RnvK0aS03ZtGtoKDgvVpJLCIB6voCAIAgCAIAgCAIDwlAYrabaDtKxQnuZOcPPyHLr6Z461bPhREvb3j8ENub6+xmiVn3JiWSRZLG+QkRitBU+39Vzp0pT+lHbSoTqtqK2OOIPEEH0II6LhqmdWqZYXR2NXunxoDQOFQ6ueHE8vwabZ01JynujbZyoxk51HqtvnU+cbU7PGNz57MxwgBqQKnsanCp0rkeC3ULjvc6YKlrdqvlYxgi3db9/uu8X93ytkZZNTROXMBAWlx35LZi4MPdf4hnj9Q0IXXUg5RfDozhNScWovDNfYbA2SA2h0gAcKtNa41x3udcKZqT+lai5VHgjqxapynVeH89StWInhAS7FZN7F3h6rHdXSprhjv6Fvsrsp3L7yp9H5exLmhpiMuikZb3Pd0nFJQR1gmrgc+q+YPk4Y1RZXbYDK7RozPsOa2WdnK4l0jzZjuLhUl5mqghaxoa0UAXqqdONOKjFYSI0pOTzI6LmcQgCAIAgCAIAgCA8JQGK2m2g7SsUJ7mTnDz8hy6+meOtWzpEiXt7x5hDbm+vz+TMSPDQSTQBdEYuTwibGLk8RWpnbxtxkNBg0ZDXmVbtrZUlruX7W1VFZe5ZXBtJJAx0Ve47I8YycyNfZc68JcL7vc7ayn3b7rc0huo9iZnPAJo4A8Qeep4flJLtpKnxyeGR5WclRdSbw+nzmVqymIs470DYDE1gq6oJNCCCMag5nhp0WqNzwU+GK16m6ned3R4ILD6/wB/c+e7V7HS2ZgtLG/pOOI80RPhryPA8OKo0ZTcE57le2lUdNOpuV93W/f7rvF/d8rVGWTvaJy5HwIC3uB76uaCezzI4b2QNNaKf2g48CT3JvaTjwJPfJdKQRjtDCTQkYdVjublU/DHf0L3Y/Y7un3lX6F/7e3UuIXgjDD2UjVvU9m4KmsJaGmkuOMso2u9TxVrX1C9FLsmi6eI79SRG9qKWXt0KOzXC90m6e61p7x0/wDHWqmUOz6k6rhNYS39ilUv4Rp5Wre3ua+CEMaGtFAF6anTjTioxWEiHKTk8s6LmcQgCAIAgCAIAgCA8JQGK2m2g7SsUJ7mTnDz8hy6+meOtWz4YkS9vePwQ25vr7GYlkDWlzjQNBJOgAqVnSbeETYxcmktzJy31/EFwGDWnut4kfUf39FatbeNNa7l+1tFRWX9T+YPwthrCAt7pvUjcileeyBwJqezqcTTTksl1bd6lhmS6tXXSw8YNbfMULQxsRq4DEg1BBxBJ19OH2U25hThiMd+ZMvKdGniMN1v86lbiDoR9qELNsYtic6SS1ObG9wpSmORwxJHE0XfxzryUWzWqlW5nGLfzr9zB7d7Ktskm/Z3F0eBcOMTuZ0PDTjwVRVY8XBnUuRrQ4+6zqVt3W/f7rvF/d8rTGWTsaLiw2MyGgwAzOnyum4rxpRy9+hmubmNGOu/Q0kMQYA1ooAoc5ynLiluQKlSVSXFLcnWKyb2J8PVYLq67vwx39Cx2V2U7l95U+j8vYtCwUpTBR8t7ntoLgSUdCI9pYUNCamjU7M2x7wWkVa3jodOfsr/AGTWqyTg9Yrn/XzYi39GEJZW7+ZL5WicEAQBAEAQBAEAQBAeEoDFbTbQdpWKE9zJzh5+Q5dfTPHWrZ8KIl7e8fgg9Ob6+xmlmJh2st2/xBMXlc0h3JpwPVd1CEpzXCaLWlOpUXBy1z0Pnu1NwvsM5ax++yvcf/i/Rw/f+oFiM4uXCnqj0UasJScU9VufqxWwSDRwzHuF3xlk5YJK5HwIC92WvdkMg7cEx8DnuHgacR/tZ528JT48anRK3pufeNamkl3rTI50bOFcKZDIk8SVJmpVqj4URqinc1W4x+efmQcQeIIPoQR0WfVMy6plhdAhJe60EGgJo4VDq51r4jyWm2dPicps2WbpKbnVeq1+eZhry2Qa6dzoHdnEXVDTUuYNAelcua7/ANcuhr/8osPw/Y0Vls7Y2hjBQD7k8yeJWGc3N8UiVUqSqScpbk+yWMuxOA4c1gurpU/DHf0LHZPZTuWqlVeD8vbzJUbiw0/ZSG8nvFCPClHYmNdXEL4dTWCZYLuMxpk0Zn2HNbLKzlcS/wBVu/6M9e5VFabmqs1naxoYwUAyXqadONOKjFYRFnOU5cUnqdV2HEIAgCAIAgCAIAgPCUBitptoO0rFCe5k5w8/IcuvpnjrVs+GJEvb3j8ENub6/P5M0sxMOsNnc4OLWkhoqacAuUYSlnC2OcKc55cVnB+YpS0hzSQRxCRk4vKOMZOLzHcm2Kw2eWOX+Ko4UoWGvHzDiTXKmRWq14FmpJ6ooWPdxzVnLVcvm58svq6X2WTeZvGMu7jz96NdTCtB96Ejlvo11UWUVLa5jXi2uRJsVrEg0cMx7halLJ3tElcj4EBf7PbSPs7XRYbjsQeLDxI1HLguitCXC3T3OmspqD7vc0n/AEtxhMznAV7wB8wPGuprgpLtpKm5yeCO7OapOrN4fn83K1ZTEEBIssQJG9l1WO5ue7XDHf0LvZHY8rr/AC1Po/L26lyAo7eXlns4xUVhH4ljDghzjLhO1y3c+R5GTB4j7DmtlnZyuJdFzZ13dzCnHz5GzghDGhrRQBepp0404qMVhIgSk5PL3Oi7DiEAQBAEAQBAEAQHhKAxW020HaVihPcyc4efkOXX0zx1q2dIkS9vePwQ25vr7GYkeGgkmgGZXRGLk8Imxi5PEVqZ68LwMhwqGjIa8yrVtaxpLXVl62tI0o+LVl5cO1DmRdgaBxPdk448DqdCvlxBwpt0kfbhSpUn3K+dS2nup7Iu1dQY4tOBAOX35KZK3lGHGyTO0nCl3kv+EBZzKWFttML7KbP2QO+KPDscfqB1riDwpyW1XKhTUYLUoxvY06KjSWHz+eZ8y2h2ensTmPIPZv8AA/8AxdoacOI9DSjTlKUU2sMsUpSnBSksM/ditgkGjhmPcLvi8nIkrkAgL647ZI5vZucTGzFoOTScwPzqpnaOMR+fuS+08Yjr+39lmpZIJdism9i7w9Vjurru/DHf0LfZXZLuX3lT6Py9ifNBXLNSG29We5pNQXCtj8QTUwP+l8OycM6otrtsBldo0Zn2HNbLOzlcS6RW7/owXFwqS8zVQQhjQ1ooAvU06cacVGK0RGlJyeWdF2HEIAgCAIAgCAIAgCAxe1V+lxdBEaNBo8jzEZtHLXXrkrVc+FEW+vHJunDbmZWaVrGlzzRrRUk8AFmjFyeETIxcniK1ZmJr3/iMW4MBIA48ifzirdrbxpLPMv2toqKy9/mxwWs1hAaW6L3fM6OCeTAd1rne+p4AnkFhuraVRpxehgu7WdaSw9PmpeXzZo43BsZJIHeGdD66nRTrinCEsRZOvKVKnJRg/uQY3lpDhmDUccQuhNp5RljJxaaJtsjdbz2TwNwjEcG6u9a5LXGpVrVFjTBvjWr3NVcLxj/i6s+abVbPvsE5a1+8ytWPGePleODuox5ClGazhPVFpVIuTgnqj9WK2CQaOGYXepZPpZ2GxmQ0GAGZ0+V017iNJZe/QzXNzGjHL35I0kMQYA1ooAoc5ynLiluQKlSU5cUtyVDZiRvEYdVgublU/DHf0LXY/ZH6qXeVfo/L28yzs8tcDmo71eWe3dJQWI7HdfDgd7FdJmdo0eI+w5rbZ2criX+q3Z1VrtUY43Zr7PA1jQ1goBgF6qnTjTioxWhDnNzk5S3Oi5nEIAgCAIAgCAIAgCA/L60NM6YIfHsfJzzz4+qlHkteZ6LmNra+HJrhRzvp0PPEZLRbRk6iceRrsoTlVTjyPm96WCWw2h0T6EtOY8MjeBH/AMzBViMlyPQqSlonsWNmnD27zf8ARXcnk+HRfQEBqdkb3iD6WomoFWOOIro7nofhY521OM3V/gyO2pQm6r++PPqWU7TK97o46Ad4gcBr70CkyzUk5RWhFmnVnKUI6bnCGVzSHNJBGRC4Rk4vKOuE5QfFF4ZNsV32eaOX+KIc2hq014+auda5UyP2Wq14E3Uk9jfYqms1Zy1R8+OyMgm/TkpFXBxPfDdCAKVp9ui0froYylqan2nT4dE8mts8AY0NbkPvXmTxU6c5TlxSI9SpKpLikTrDZd41OQ4arBdXXd+GO/oWOyuyXctVai8H5e3UtwFHbb1Z7WMVFYRFnhpiMuiGiE86Msblsjpjo1ubvYc1ss7OVxLpHmzHd1o0Vpu+Rr4IQxoa0UAXqqdONOKjFaEOUnJ5Z0XM4hAEAQBAEAQBAEAQBAEBh9qbjLHOmjFWONXAeQnM+hP9FjrUseJEO+tHFupHbn5exRWa1PjJLHEVFCumFSUPpZhpVZ03mDwdJdn7PabO91pdrulvijdwPMnTIj9tlqowi6rZQsVGnB1pS8vnn0PlVps8lllLXfD26j8wW6lVjNcUSpRrRrR4oltZ5w9u83/RWlPJzOi+gIDV7P7UOjiMBADie7J68HanQrJXg6dNukjLXUqVJuitfmpay3W9sXauwxxBzocj8KVK3kqfGyRO0qRpd4/+cyAugyhAS7FZN7F3h6rHdXSp+GO/oW+yuyncvvKn0fl7El7Cw4fZSG87nvIKPDwpaEqKTeC+HXKPCT7tsDpTo0Zn2HNbLOzlcS6RW7MtxcKkvM1VngaxoawUA4Beqp0404qMVoRpzlN8UnqdFzOIQBAEAQBAEAQBAEAQBAEB45oIoeKHxrJhtpbg7ImWIfpnMfR8dFirUeHxLYh3tn3fjht6exnlnJxK2igs09lbAGY+IOPijdrXiTlTKn2W/wDUwpwSpoqK9p0acY0l98ny68LBPYpdyVpBI3hXKRmo/KgqhCWUmV4S4oqWMZLKzzh7d5v+iu9PIOi+gIDT3ZesszAyVxcIqBpPGtc9SNVK7Q0a1/Ykdpt5jr+xKU0lnaCKpBcMOqx3Nz3a4Y7+he7H7Hd0+9qaQ/L28y5YRTDJR3q8s9moKHhS2PXNrgV8PqeDpdd0vkfgaMGbvYc1us7OVxLoluzhc3cacPPobOCFrGhrRQBeop0404qMVoQJScnlnRdhxCAIAgCAIAgCAIAgCAIAgCAIDxzaihyKHxrJhtpbg7ImWIfpnMfR8dFirUeHVbEO9su78cNvT2KOyzbj2voDumtDkV0wlwyTMNKfBNS3wdb5sJvI9m4Ua3Fp/wC3/NXiTpxW2FarVq+HYpUrmvXr5ht/GPM+YXpd81htDopKVbxHhkbwI09MwVRjLoV1JPKRYWecPbvN+/IruTPhOsNjMhoMAMzp8ror140o5e/QzXFxGjHz5I0kMQYA1ooAoc5ynLikefqVJVJcUtydYrJvYu8PVYLq6VPwx39Cz2V2U7l95U+j8vYspIgRTTLko+cvLPbQxTSS2IzHFhxQ0NKaLi67EZjhg0Zn2HNbLOzlcS6RW7MFzXVFY5mrghDGhrRQBepp0404qMVhIiyk5PL3Oi7DiEAQBAEAQBAEAQBAEAQBAEAQBAEB45tRQ5FBgw20twdkTLEKxnMfR8dFirUeHVbEK8s+78cNvT2KSy2p8ZJY6lRQrqhUlB5izFTqzpvMHg6SbPQWqCR1pfTPdcD3o3fVzJ049NlqlFOpJlGxShF1pS+ef9Hz6xbNWhsu7UNZXF4od5vJuvrku93sFHMd+hpn2jSUMrfobOCEMaGtGA/KlTJzlN8UiJUqSqS4pbk2zWQuFeHVYLm6VPwx39Cz2R2V+pkqlX6PX2JsEtMDl0Uh66nunSSjiCwa+4CwxUFK473Opw/Zek7LdN0OFb8yHeKaqZe3IjW3Z4OeN00YcTq3kPX9l0Veyc1cweIvfy+x3Uu0HCGHqy6s1naxoYwUAyCr06cacVGK0RPnOU5OUtzquw4hAEAQBAEAQBAEAQBAEAQBAEAQBAEAQHjm1FDkUDWTDbS3B2VZYh+mcx9Hx0WKtR4dVsQr2z7vxw29PYz9V0E48XwEmxWcOPey6rHdXXdrhjv6FzsrsiVz/lqLwfl7dS3AUdtvVntIxUVhbHKeGuIz6ojthPGjJ2zcEjn1bUNbm7/Hn7Kj2dRqyqqcHhLd/wBfPuZe0J04ww93y/s2S9QQggCAIAgCAIAgCAIAgCAIAgCAIAgCAIAgCAIDxzaih4oGsmG2luAxVliH6ZzH0fHRYq1Hh1jsQr2y7vxw+n09ipsVk3sXeHqpd1dKmuGO/oauyuyncvvKn0fl7EyeCmLcuikZb3Pd0mklA/cE1cDn1Xw+ThjVFndtgMrtGjM+w5rZZ2criX+q3ZjuLhUl5mqghaxoa0UAXqqdONOKjFYSI0pOTyzouZxCAIAgCAIAgCAIAgCAIAgCAIAgCAIAgCAIAgCA8c0HA41QYM3e11bnejHc0Hl+F5vtDs9026lPVc/L29CpaXCaUHpjYqlKN50sFzOldhgzzH2H5gttnZzuJdI9TrrXipRxuzZQQtY0NaKAL1FOnGnFRisJEKUnJ8T3Oi7DiEAQBAEAQBAEAQBAEAQBAEAQBAEAQBAEAQBAEAQBAEBHdYoyamNtfQLodrQby4LP2R2KrNLGWd2tAwAou5JJYR1nq+gIAgCAIAgCAIAgCAIAgCAIAgCAIAgCAIAgCAIAgCAIAgCAIAgCAIAgCAIAgCAIAgCAIAgCAIAgCAIAgCAIAgCAIAgCAIAgCAIAgCAIAgCAIAgCAIAgCAIAgCAIAgCA/9k=;" vertex="1" parent="1">
          <mxGeometry x="140" y="360" width="170" height="170" as="geometry" />
        </mxCell>
      </root>
    </mxGraphModel>
  </diagram>
</mxfile>
